# xmcd
#
# Track frame offsets:
#        150
#        21273
#        40703
#        62611
#        81199
#        101267
#        118779
#        137804
#        154996
#        171838
#        189197
#        206634
#        224669
#        242957
#        260613
#        280365
#        297616
#
# Disc length: 4207 seconds
#
# Revision: 0
# Processed by: cddbd v1.5.2PL0 Copyright (c) Steve Scherf et al.
# Submitted via: CDGFix 3.7
#
DISCID=07106d11
DTITLE=Various Artist - Karaoke 5080-01
DYEAR=1900
DGENRE=Karaoke
TTITLE0=Various Artist - Rascal Flatts - Life Is A Highway
TTITLE1=Various Artist - George Strait - Wrapped
TTITLE2=Various Artist - Carrie Underwood - Wasted
TTITLE3=Various Artist - Joe Nichols - I'll Wait For You
TTITLE4=Various Artist - Alan Jackson - A Woman's Love
TTITLE5=Various Artist - Reba Mcentire and Kelly Clarkson - Because Of You
TTITLE6=Various Artist - Brad Paisley - Ticks
TTITLE7=Various Artist - Taylor Swift - Teardrops On My Guitar
TTITLE8=Various Artist - Rodney Atkins - These Are My People
TTITLE9=Various Artist - Gretchen Wilson - One Of The Boys
TTITLE10=Various Artist - Tim Mcgraw - My Little Girl
TTITLE11=Various Artist - Brooks and Dunn - Hillbilly Deluxe
TTITLE12=Various Artist - Sugarland - Everyday America
TTITLE13=Various Artist - Dierks Bentley - Long Trip Alone
TTITLE14=Various Artist - Faith Hill - Lost
TTITLE15=Various Artist - Big and Rich - Lost In This Moment
TTITLE16=Various Artist - Jack Ingram - Lips Of An Angel
EXTD=
EXTT0=
EXTT1=
EXTT2=
EXTT3=
EXTT4=
EXTT5=
EXTT6=
EXTT7=
EXTT8=
EXTT9=
EXTT10=
EXTT11=
EXTT12=
EXTT13=
EXTT14=
EXTT15=
EXTT16=
PLAYORDER=
